<svg width="20" height="32" viewBox="0 0 20 32" fill="none" xmlns="http://www.w3.org/2000/svg">
<path d="M4.70182 28.4877L7.52305 27.4709C8.10964 27.2583 8.10964 27.7297 8.10964 28.4322V29.7262C8.10964 30.7707 7.75583 30.9001 7.29028 31.0665L4.70182 32V28.4877Z" fill="white"/>
<path d="M4.70182 22.7662L11.8806 20.1689C12.4672 19.9563 12.4672 20.4277 12.4672 21.1302V22.4149C12.4672 23.4594 12.1134 23.5888 11.6478 23.7644L4.71113 26.2693V22.7662H4.70182Z" fill="white"/>
<path d="M4.11546 14.6139L0.47486 13.2922C0 13.1258 0 12.488 0 12.257C0 12.257 0 13.0241 0.707635 12.7653L18.594 6.30444C20.0093 5.79608 20.0093 5.39863 19.4134 5.18604C20 5.39863 20 5.39863 20 7.11783C20 8.75385 20 9.29919 19.2924 9.55799L5.29795 14.6139C4.70205 14.8265 4.70205 14.8265 4.11546 14.6139Z" fill="white"/>
<path d="M19.4132 10.9073C19.9998 11.1199 19.9998 11.5174 18.5938 12.0257L4.70182 17.0447V20.5478L19.2921 15.2793C19.9998 15.0205 19.9998 14.4751 19.9998 12.8391C19.9998 11.1199 19.9998 11.1199 19.4132 10.9073Z" fill="white"/>
<path d="M1.527 7.94958L7.77467 10.2049L12.6257 8.4487L0.94041 4.23388C0.121043 3.9381 0 3.89188 0 4.48344V5.9993C0 7.39499 1.06145 7.7832 1.527 7.94958Z" fill="#ED1650"/>
<path d="M19.4134 10.9072L17.4767 10.2047L12.6257 11.9609L15.6983 13.0701L18.594 12.0256C20 11.5173 20 11.1198 19.4134 10.9072Z" fill="#ED1650"/>
<path d="M19.4135 5.18597C19.4135 5.18597 6.47119 0.50899 5.65182 0.213213C4.83245 -0.0825646 4.71141 -0.12878 4.71141 0.453532V1.96939C4.71141 3.37433 5.77286 3.7533 6.23841 3.91967L15.6984 7.33959L18.5941 6.29513C20 5.79601 20 5.39856 19.4135 5.18597Z" fill="#ED1650"/>
<path d="M0.707635 12.7653L4.71136 11.3233L0.949721 9.96462C0.121043 9.6596 0 9.62263 0 10.2049V12.2569C0 12.2569 0 13.0148 0.707635 12.7653Z" fill="#ED1650"/>
</svg>
