<svg width="200" height="46" viewBox="0 0 200 46" fill="none" xmlns="http://www.w3.org/2000/svg">
<path d="M115.65 34.5071V16.7957L126.857 16.065V11.4943H98.0019V16.065L109.208 16.7957V34.5071H115.65ZM62.8931 34.5071L65.537 29.2057H49.942V11.4943H43.2584V34.5071H62.8931ZM87.7081 25.6049H79.0517L83.4269 16.3839L87.7081 25.6049ZM145.74 25.6049H137.083L141.458 16.3839L145.74 25.6049ZM175.091 28.8735C175.333 29.684 176.326 30.2553 177.399 30.2553H184.083L189.035 16.7027L193.732 34.4939H200L194.806 14.0852C194.31 12.0391 193.155 11.4677 191.263 11.4677H184.754L180.057 24.9406L176.353 13.5139C175.856 12.0391 174.957 11.4677 173.467 11.4677H166.126L160.113 34.4806H166.461L171.078 16.6895L175.091 28.8735ZM150.115 34.5071H157.121L146.075 12.9558C145.498 11.8929 144.921 11.481 143.606 11.481H137.499L125.877 34.4939H132.963L135.03 30.2553H148.061L150.115 34.5071ZM91.9894 34.5071H99.0755L88.0302 12.9558C87.4531 11.8929 86.876 11.481 85.5608 11.481H79.4677L67.8453 34.4939H74.9315L76.9983 30.2553H90.0299L91.9894 34.5071Z" fill="white"/>
<path d="M6.79114 40.951L10.8576 39.4894C11.7032 39.1838 11.7032 39.8614 11.7032 40.8712V42.7314C11.7032 44.2328 11.1932 44.4188 10.5221 44.658L6.79114 46V40.951Z" fill="white"/>
<path d="M6.79114 32.7264L17.1386 28.9928C17.9841 28.6872 17.9841 29.3648 17.9841 30.3746V32.2215C17.9841 33.7229 17.4741 33.9089 16.8031 34.1614L6.80456 37.7621V32.7264H6.79114Z" fill="white"/>
<path d="M5.94542 21.0075L0.684462 19.1075C8.34465e-07 18.8683 0 17.9515 0 17.6193C0 17.6193 8.34465e-07 18.7222 1.01998 18.3501L26.8014 9.0626C28.8413 8.33183 28.8413 7.76049 27.9824 7.4549C28.8279 7.76049 28.8279 7.76049 28.8279 10.2318C28.8279 12.5836 28.8279 13.3676 27.8079 13.7396L7.62302 21.0075C6.79093 21.3131 6.79093 21.3131 5.94542 21.0075Z" fill="white"/>
<path d="M27.9957 15.6793C28.8412 15.9849 28.8412 16.5562 26.8147 17.287L6.80424 24.5017V29.5375L27.8346 21.9639C28.8546 21.5919 28.8546 20.808 28.8546 18.4562C28.8412 15.9849 28.8412 15.9849 27.9957 15.6793Z" fill="white"/>
<path d="M2.21468 11.4276L11.22 14.6696L18.2123 12.1451L1.36917 6.08628C0.188143 5.6611 0.0136719 5.59467 0.0136719 6.43174V8.61078C0.0136719 10.6437 1.54364 11.1884 2.21468 11.4276Z" fill="#ED1650"/>
<path d="M27.9963 15.6796L25.2047 14.6698L18.2125 17.1943L22.6414 18.7887L26.8152 17.2873C28.8418 16.5566 28.8418 15.9852 27.9963 15.6796Z" fill="#ED1650"/>
<path d="M27.9957 7.45483C27.9957 7.45483 9.34082 0.731673 8.15978 0.306493C6.97875 -0.118687 6.80428 -0.18512 6.80428 0.651952V2.831C6.80428 4.8506 8.33425 5.39536 9.00529 5.63453L22.6408 10.5507L26.8147 9.04925C28.8412 8.33176 28.8412 7.76042 27.9957 7.45483Z" fill="#ED1650"/>
<path d="M1.03365 18.3501L6.8046 16.2773L1.36917 14.3241C0.188143 13.899 0.0136719 13.8325 0.0136719 14.6696V17.6193C0.0136719 17.6193 0.0136727 18.7221 1.03365 18.3501Z" fill="#ED1650"/>
</svg>
